<svg width="555" height="600" viewBox="0 0 654 709" fill="none" xmlns="http://www.w3.org/2000/svg">
<path d="M443.166 539.285C470.711 505.903 487.693 476.217 477.929 434.053C467.641 389.631 416.003 393.015 393.592 353.305C356.828 288.161 445.048 212.273 389.841 161.8C358.016 132.704 327.733 125.846 284.673 128.153C223.324 131.44 187.054 163.491 153.446 214.92C101.505 294.402 117.319 380.409 173.085 457.256C237.826 546.471 373.009 624.307 443.166 539.285Z" fill="#EFEEE8"/>
<path d="M492.842 579.846C527.266 538.128 548.489 501.029 536.286 448.336C523.429 392.82 458.896 397.05 430.888 347.423C384.944 266.012 495.194 171.172 426.201 108.096C386.428 71.7334 348.583 63.1634 294.77 66.0465C218.101 70.1542 172.774 110.209 130.773 174.481C65.8617 273.811 85.6246 381.296 155.316 477.332C236.225 588.826 405.165 686.1 492.842 579.846Z" stroke="#E5E4DE"/>
</svg>
